<svg width="30" height="30" viewBox="0 0 30 30" fill="none" xmlns="http://www.w3.org/2000/svg">
<g clip-path="url(#clip0_197_13)">
<path d="M26.6426 0C28.4905 0 29.9686 1.47827 29.9688 3.32617V26.6738C29.9686 28.5217 28.4905 30 26.6426 30H3.32617V29.9688C1.47827 29.9686 0 28.4905 0 26.6426V3.32617C0.000169051 1.47838 1.47838 0.000169051 3.32617 0H26.6426ZM4.58887 25.8418H9.05566V11.3965H4.58887V25.8418ZM20.6055 10.9648C17.5564 10.965 16.2627 13.3369 16.2627 13.3369V11.3965H11.9814V25.8418H16.2627V18.2646C16.2628 16.232 17.1873 15.0312 18.9736 15.0312C20.6057 15.0314 21.4062 16.2014 21.4062 18.2646V25.8418H25.873V16.6943C25.873 12.8442 23.6548 10.9648 20.6055 10.9648ZM6.80664 4.12793C5.32851 4.1281 4.15845 5.32852 4.1582 6.80664C4.1582 8.28497 5.35914 9.48616 6.80664 9.48633C8.28508 9.48633 9.45605 8.28508 9.45605 6.80664C9.45581 5.32842 8.28492 4.12793 6.80664 4.12793Z" fill="#F8F2E2"/>
</g>
<defs>
<clipPath id="clip0_197_13">
<rect width="30" height="30" fill="white"/>
</clipPath>
</defs>
</svg>
