<svg width="30" height="30" viewBox="0 0 30 30" fill="none" xmlns="http://www.w3.org/2000/svg">
<g clip-path="url(#clip0_197_8)">
<path d="M15 0C10.9343 0 10.4107 0 8.80903 0.0924025C7.20739 0.154004 6.12936 0.431211 5.17454 0.800821C4.18891 1.17043 3.35729 1.69405 2.52567 2.52567C1.69405 3.35729 1.17043 4.18891 0.800821 5.17454C0.431211 6.12936 0.184805 7.20739 0.0924025 8.80903C0.0308008 10.4107 0 10.9343 0 15C0 19.0657 0 19.5893 0.0924025 21.191C0.154004 22.7926 0.431211 23.8706 0.800821 24.8255C1.17043 25.8111 1.69405 26.6427 2.52567 27.4743C3.35729 28.306 4.18891 28.8296 5.17454 29.1992C6.12936 29.5688 7.20739 29.8152 8.80903 29.9076C10.4107 29.9692 10.9343 30 15 30C19.0657 30 19.5893 30 21.191 29.9076C22.7926 29.846 23.8706 29.5688 24.8255 29.1992C25.8111 28.8296 26.6427 28.306 27.4743 27.4743C28.306 26.6427 28.8296 25.8111 29.1992 24.8255C29.5688 23.8706 29.8152 22.7926 29.9076 21.191C29.9692 19.5893 30 19.0965 30 15C30 10.9035 30 10.4107 29.9076 8.80903C29.846 7.20739 29.5688 6.12936 29.1992 5.17454C28.8296 4.18891 28.306 3.35729 27.4743 2.52567C26.6427 1.69405 25.8111 1.17043 24.8255 0.800821C23.8706 0.431211 22.7926 0.184805 21.191 0.0924025C19.5893 0.0308008 19.0965 0 15 0ZM13.6448 2.71047C14.0452 2.71047 14.4764 2.71047 15 2.71047C19.0041 2.71047 19.4661 2.71047 21.0678 2.80287C22.5154 2.86448 23.3162 3.11088 23.8398 3.32649C24.5483 3.6037 25.0411 3.9117 25.5647 4.43532C26.0883 4.95893 26.4271 5.45175 26.6735 6.16016C26.8891 6.68378 27.1355 7.4846 27.1971 8.93224C27.2587 10.5031 27.2895 10.9959 27.2895 15C27.2895 19.0041 27.2895 19.4661 27.1971 21.0678C27.1355 22.5154 26.8891 23.3162 26.6735 23.8398C26.3963 24.5483 26.0883 25.0411 25.5647 25.5647C25.0411 26.0883 24.5483 26.4271 23.8398 26.6735C23.3162 26.8891 22.5154 27.1355 21.0678 27.1971C19.4969 27.2587 19.0041 27.2895 15 27.2895C10.9959 27.2895 10.5339 27.2895 8.93224 27.1971C7.4846 27.1355 6.68378 26.8891 6.16016 26.6735C5.45175 26.3963 4.95893 26.0883 4.43532 25.5647C3.9117 25.0411 3.5729 24.5483 3.32649 23.8398C3.11088 23.3162 2.86448 22.5154 2.80287 21.0678C2.74127 19.4969 2.71047 19.0041 2.71047 15C2.71047 10.9959 2.71047 10.5339 2.80287 8.93224C2.86448 7.4846 3.11088 6.68378 3.32649 6.16016C3.6037 5.45175 3.9117 4.95893 4.43532 4.43532C4.95893 3.9117 5.45175 3.5729 6.16016 3.32649C6.68378 3.11088 7.4846 2.86448 8.93224 2.80287C10.3183 2.74127 10.8419 2.71047 13.6448 2.71047ZM23.0082 5.20534C22.0226 5.20534 21.2218 6.00616 21.2218 6.99179C21.2218 7.97741 22.0226 8.77823 23.0082 8.77823C23.9938 8.77823 24.7947 7.97741 24.7947 6.99179C24.7947 6.00616 23.9938 5.20534 23.0082 5.20534ZM15 7.29979C10.7495 7.29979 7.29979 10.7495 7.29979 15C7.29979 19.2505 10.7495 22.7002 15 22.7002C19.2505 22.7002 22.7002 19.2505 22.7002 15C22.7002 10.7495 19.2505 7.29979 15 7.29979ZM15 10.0103C17.7721 10.0103 19.9897 12.2587 19.9897 15C19.9897 17.7413 17.7413 19.9897 15 19.9897C12.2587 19.9897 10.0103 17.7413 10.0103 15C10.0103 12.2587 12.2587 10.0103 15 10.0103Z" fill="#F8F2E2"/>
</g>
<defs>
<clipPath id="clip0_197_8">
<rect width="30" height="30" fill="white"/>
</clipPath>
</defs>
</svg>
